<?xml version="1.0" standalone="no"?>
<!DOCTYPE svg PUBLIC "-//W3C//DTD SVG 20010904//EN"
 "http://www.w3.org/TR/2001/REC-SVG-20010904/DTD/svg10.dtd">
<svg version="1.0" xmlns="http://www.w3.org/2000/svg"
 width="400.000000pt" height="400.000000pt" viewBox="0 0 400.000000 400.000000"
 preserveAspectRatio="xMidYMid meet">
<metadata>
Created by potrace 1.11, written by Peter Selinger 2001-2013
</metadata>
<g transform="translate(0.000000,400.000000) scale(0.100000,-0.100000)"
fill="#000000" stroke="none">
<path d="M2356 3883 c-11 -3 -25 -11 -33 -18 -7 -7 -16 -15 -20 -17 -5 -1 -24
-22 -44 -45 -26 -31 -35 -51 -34 -73 2 -26 0 -28 -14 -17 -12 10 -13 9 -7 -1
8 -14 -43 -68 -66 -69 -7 0 -25 -3 -40 -6 -17 -3 -28 -1 -28 5 0 7 -4 7 -12 1
-7 -5 -52 -9 -101 -9 -71 1 -86 -2 -82 -13 4 -11 2 -11 -8 -2 -8 6 -25 11 -38
10 -13 0 -31 1 -39 4 -8 2 -28 8 -45 12 -16 5 -38 17 -49 27 -11 10 -26 18
-35 18 -8 0 -23 7 -33 17 -12 10 -18 12 -18 4 0 -7 -5 -9 -12 -5 -11 7 -70 7
-109 0 -37 -6 -89 -31 -89 -43 0 -7 -4 -13 -10 -13 -5 0 -7 -7 -4 -15 4 -8 1
-15 -6 -15 -6 0 -8 -4 -5 -10 3 -5 2 -10 -4 -10 -6 0 -8 -6 -5 -14 3 -8 0 -17
-6 -21 -8 -5 -8 -11 1 -21 9 -11 9 -14 0 -14 -8 0 -10 -8 -6 -19 3 -11 1 -22
-5 -26 -6 -3 -8 -10 -5 -15 5 -8 -64 -46 -77 -42 -5 1 -8 -3 -8 -9 0 -5 -4 -7
-10 -4 -9 6 -59 -21 -71 -39 -4 -5 -12 -5 -18 -2 -7 4 -10 2 -9 -5 2 -7 -10
-15 -27 -19 -16 -4 -39 -12 -50 -18 -36 -20 -59 -25 -118 -27 -47 -2 -60 1
-68 16 -5 11 -16 19 -24 19 -8 0 -15 6 -15 13 0 19 -120 43 -130 26 -5 -6 -17
-10 -28 -7 -14 4 -28 -5 -48 -28 -16 -19 -37 -43 -46 -54 -10 -11 -18 -24 -18
-30 0 -5 -5 -10 -11 -10 -5 0 -8 -4 -5 -9 4 -5 2 -21 -4 -35 -7 -19 -6 -26 3
-26 7 0 8 -3 2 -8 -14 -10 -14 -95 -1 -104 7 -5 7 -8 -2 -8 -10 0 -9 -6 2 -28
8 -16 13 -40 12 -55 -2 -15 1 -27 5 -27 20 0 8 -55 -17 -76 -14 -13 -26 -26
-27 -31 -2 -10 -97 -86 -97 -77 0 4 -7 1 -15 -6 -8 -7 -15 -9 -15 -5 0 5 -10
0 -22 -11 -13 -12 -18 -13 -13 -4 8 13 6 13 -8 1 -9 -7 -23 -11 -32 -8 -8 4
-17 2 -19 -2 -3 -5 -24 -11 -46 -15 -43 -7 -142 -55 -135 -66 2 -4 -4 -14 -13
-23 -31 -29 -43 -47 -37 -56 3 -5 0 -11 -7 -13 -7 -3 -12 -31 -13 -78 -2 -103
17 -140 87 -170 92 -40 104 -56 100 -140 -1 -25 -3 -55 -3 -67 -1 -13 -5 -23
-9 -23 -11 0 -19 -37 -10 -47 5 -4 3 -25 -5 -45 -7 -21 -10 -38 -6 -38 4 0 6
-24 5 -52 -6 -109 -16 -222 -20 -230 -3 -4 0 -8 5 -8 6 0 11 -12 11 -26 0 -14
4 -23 10 -19 16 10 12 0 -10 -25 -10 -12 -34 -30 -52 -39 -22 -10 -36 -27 -43
-48 -5 -18 -13 -33 -18 -33 -4 0 -5 -5 -2 -10 4 -6 1 -17 -5 -25 -9 -11 -9
-15 -1 -15 7 0 10 -10 7 -24 -5 -25 22 -57 79 -92 17 -10 33 -22 36 -27 3 -4
20 -9 37 -10 18 -1 32 -6 32 -10 0 -5 4 -6 9 -2 5 3 12 1 15 -3 3 -5 17 -7 31
-5 15 3 22 10 18 17 -4 7 -1 7 8 -1 11 -9 19 -9 26 -2 7 7 20 2 41 -16 17 -15
31 -29 31 -33 -3 -20 3 -33 26 -58 14 -15 24 -33 21 -40 -3 -7 2 -15 10 -18 8
-3 14 -10 14 -16 0 -6 9 -30 19 -54 11 -23 22 -56 25 -72 2 -16 5 -29 6 -29 4
0 13 -51 25 -137 2 -17 -5 -37 -17 -53 -11 -14 -17 -25 -13 -25 3 0 -3 -13
-15 -30 -12 -16 -19 -30 -16 -30 3 0 1 -11 -4 -24 -5 -15 -5 -27 3 -35 6 -6 8
-11 3 -11 -4 0 -1 -7 6 -15 29 -33 37 -43 32 -48 -2 -2 18 -14 45 -26 27 -11
53 -25 56 -31 3 -5 12 -7 20 -4 7 3 22 1 33 -5 15 -8 32 -6 66 5 25 9 46 20
46 25 0 5 3 8 8 7 4 0 15 2 25 7 21 9 87 -2 87 -15 0 -6 7 -10 15 -10 18 0 65
-46 56 -56 -3 -4 -1 -4 6 0 6 3 15 1 19 -5 3 -6 22 -17 40 -25 19 -8 34 -19
34 -24 0 -15 52 -37 83 -35 15 1 27 -1 27 -5 0 -4 10 -6 23 -6 12 1 32 -1 45
-6 13 -5 22 -4 22 3 0 6 5 7 13 2 17 -11 129 -13 149 -2 11 6 19 5 23 -2 4 -5
18 -14 31 -19 13 -5 24 -16 24 -24 0 -16 47 -49 59 -42 5 3 11 -3 14 -14 3
-11 9 -19 14 -18 4 1 18 -6 31 -17 35 -31 101 -30 131 2 14 15 30 23 42 20 11
-3 19 -2 19 1 0 4 13 23 30 42 16 19 29 39 28 45 0 5 2 18 7 28 4 10 5 20 2
24 -16 15 31 38 82 41 76 3 130 12 137 23 3 5 14 5 25 -1 13 -7 19 -7 19 0 0
5 3 9 8 9 18 -3 33 2 28 9 -3 4 20 7 50 7 30 -1 54 2 54 7 0 5 10 9 23 8 12
-1 24 -1 27 0 8 3 80 9 130 11 52 2 104 -8 108 -21 2 -5 10 -6 18 -3 8 3 14 0
14 -6 0 -6 6 -11 13 -11 8 0 25 -9 38 -21 29 -25 73 -49 112 -60 42 -12 106
21 136 70 13 22 31 41 40 44 9 2 17 14 18 27 1 12 8 30 16 39 23 26 32 45 18
36 -10 -6 -11 -3 -1 15 16 29 17 94 2 112 -13 16 -12 18 63 82 126 107 173
144 179 139 4 -4 9 3 12 15 4 12 14 24 24 27 10 3 46 33 81 67 69 66 144 114
155 97 4 -7 10 -6 19 1 9 8 15 8 20 0 3 -6 10 -8 15 -5 5 3 11 1 15 -4 3 -6
12 -8 20 -5 8 4 18 -1 21 -10 3 -9 11 -13 16 -10 6 4 20 8 32 9 11 1 24 3 27
4 10 2 47 86 52 118 3 17 8 37 13 44 5 8 3 9 -6 4 -9 -6 -11 -4 -5 6 12 18 14
49 3 49 -4 0 -6 14 -3 31 4 22 0 38 -12 51 -10 11 -17 23 -16 27 6 15 -10 41
-24 41 -9 0 -13 6 -9 15 3 9 -1 18 -9 21 -8 4 -12 10 -9 15 3 5 1 9 -4 9 -6 0
-13 7 -16 16 -3 9 -2 12 5 9 6 -4 10 -1 8 6 -4 30 2 47 25 74 14 16 23 32 20
37 -3 4 0 17 7 29 10 19 17 97 21 219 1 47 -6 91 -19 115 -6 11 -9 28 -8 37 2
9 -2 19 -9 21 -9 4 -12 29 -10 84 2 95 5 114 22 131 6 7 12 20 12 28 0 8 5 14
10 14 6 0 10 9 10 20 0 11 5 20 11 20 6 0 9 6 6 14 -3 8 -3 17 1 20 7 8 13 33
16 64 0 12 5 22 9 22 13 0 -3 40 -24 61 -11 11 -17 24 -14 29 3 4 -8 14 -24
21 -20 9 -26 16 -18 21 8 5 7 8 -4 8 -9 0 -19 7 -23 15 -3 8 -15 15 -26 15
-12 0 -28 6 -35 13 -33 28 -42 33 -74 35 -19 1 -39 6 -45 10 -6 3 -23 7 -38 8
-30 2 -58 25 -58 48 0 9 -4 16 -10 16 -5 0 -10 6 -10 14 0 7 -6 19 -14 26 -8
6 -12 19 -9 27 4 11 2 14 -5 9 -7 -4 -12 -1 -12 8 0 9 -4 16 -8 16 -4 0 -13
15 -20 34 -14 38 -55 86 -74 86 -9 0 -9 3 2 10 13 8 12 10 -3 10 -10 0 -16 4
-13 9 3 4 -3 16 -13 25 -11 10 -22 28 -25 42 -4 13 -11 24 -16 24 -6 0 -10 5
-10 10 0 6 -9 23 -20 38 -11 15 -23 41 -26 57 -3 16 -7 32 -10 37 -10 15 -14
58 -7 58 13 0 63 47 63 59 0 6 7 11 16 11 8 0 13 4 9 9 -3 5 -1 12 5 16 5 3
10 16 10 29 0 12 6 28 13 35 9 10 9 15 1 18 -7 2 -9 13 -6 25 3 14 1 19 -6 14
-6 -3 -26 0 -44 8 -18 8 -54 20 -80 27 -27 6 -48 16 -48 22 0 5 -7 4 -15 -3
-8 -7 -15 -8 -15 -3 0 7 -50 10 -131 9 -71 -1 -132 1 -135 5 -3 5 -11 6 -19 2
-8 -3 -15 0 -15 6 0 6 -5 10 -12 9 -7 -2 -13 2 -13 7 -3 23 -21 52 -52 85 -18
19 -33 38 -33 42 0 4 -6 5 -14 2 -7 -3 -20 1 -28 9 -20 21 -79 50 -106 53 -13
2 -29 7 -36 13 -7 6 -21 12 -32 14 -10 2 -30 9 -44 14 -14 6 -31 8 -39 5 -9
-3 -12 -1 -7 6 4 7 6 11 4 11 -2 -1 -12 -4 -22 -6z"/>
</g>
</svg>
